<svg xmlns="http://www.w3.org/2000/svg" xmlns:xlink="http://www.w3.org/1999/xlink" width="40.319" height="40.319" viewBox="0 0 40.319 40.319">
  <defs>
    <style>
      .cls-1, .cls-2, .cls-4, .cls-5 {
        fill: #fff;
      }

      .cls-2, .cls-3, .cls-4, .cls-5 {
        fill-rule: evenodd;
      }

      .cls-3 {
        fill: url(#linear-gradient);
      }

      .cls-4 {
        opacity: 0.12;
      }

      .cls-5 {
        opacity: 0.08;
      }
    </style>
    <linearGradient id="linear-gradient" x1="0.326" x2="0.689" y2="1" gradientUnits="objectBoundingBox">
      <stop offset="0" stop-color="#3df27f"/>
      <stop offset="1" stop-color="#37c37d"/>
    </linearGradient>
  </defs>
  <g id="组_787" data-name="组 787" transform="translate(0.054)">
    <g id="icon_1" data-name="icon 1" transform="translate(0)">
      <rect id="矩形_59" data-name="矩形 59" class="cls-1" width="40" height="40" rx="20" transform="translate(-0.054)"/>
      <g id="组_19" data-name="组 19" transform="translate(-0.054)">
        <g id="组_16" data-name="组 16">
          <path id="bg" class="cls-2" d="M40.319,20.159A20.159,20.159,0,1,0,20.159,40.319,20.193,20.193,0,0,0,40.319,20.159Z"/>
          <path id="bg-2" data-name="bg" class="cls-3" d="M40.319,20.159A20.159,20.159,0,1,0,20.159,40.319,20.193,20.193,0,0,0,40.319,20.159Z"/>
        </g>
        <path id="circle" class="cls-4" d="M4.128-12A16.128,16.128,0,1,0,20.255,4.128,16.123,16.123,0,0,0,4.128-12Z" transform="translate(13.008 13.008)"/>
        <path id="circle-2" data-name="circle" class="cls-5" d="M36.128,20A16.128,16.128,0,1,0,52.255,36.128,16.123,16.123,0,0,0,36.128,20Z" transform="translate(-12.944 -12.944)"/>
      </g>
    </g>
    <path id="游览" class="cls-1" d="M137.321,100.716l5.773-3.462L137.321,93.6l-5.773,3.656Zm-7.437-4.651,6.677-4.227a1.421,1.421,0,0,1,1.52,0l6.676,4.227a1.421,1.421,0,0,1-.029,2.419l-6.676,4a1.421,1.421,0,0,1-1.462,0l-6.676-4a1.421,1.421,0,0,1-.029-2.419Zm7.437,8.379,7.092-4.253a.947.947,0,1,1,.974,1.625l-7.579,4.544a.947.947,0,0,1-.974,0l-7.579-4.544a.947.947,0,0,1,.974-1.625Zm2.66,2.194a.947.947,0,1,1,.974,1.625l-3.147,1.887a.947.947,0,0,1-.974,0l-7.579-4.544a.947.947,0,0,1,.974-1.625l7.092,4.253,2.66-1.6Zm4.444-.324v1.326h1.136a.284.284,0,0,1,.217.467l-1.61,1.9a.284.284,0,0,1-.433,0l-1.61-1.9a.284.284,0,0,1,.218-.468h1.135v-1.326h-1.136a.284.284,0,0,1-.217-.467l1.61-1.9a.284.284,0,0,1,.433,0l1.61,1.9a.284.284,0,0,1-.218.468h-1.134Z" transform="translate(-117.075 -80.951)"/>
  </g>
</svg>
