<svg id="组_788" data-name="组 788" xmlns="http://www.w3.org/2000/svg" xmlns:xlink="http://www.w3.org/1999/xlink" width="40.62" height="40.62" viewBox="0 0 40.62 40.62">
  <defs>
    <style>
      .cls-1, .cls-2, .cls-4, .cls-5 {
        fill: #fff;
      }

      .cls-2, .cls-3, .cls-4, .cls-5 {
        fill-rule: evenodd;
      }

      .cls-3 {
        fill: url(#linear-gradient);
      }

      .cls-4 {
        opacity: 0.12;
      }

      .cls-5 {
        opacity: 0.08;
      }
    </style>
    <linearGradient id="linear-gradient" x1="0.326" x2="0.689" y2="1" gradientUnits="objectBoundingBox">
      <stop offset="0" stop-color="#f2821f"/>
      <stop offset="1" stop-color="#f2bd6d"/>
    </linearGradient>
  </defs>
  <g id="icon_1" data-name="icon 1">
    <rect id="矩形_59" data-name="矩形 59" class="cls-1" width="40" height="40" rx="20" transform="translate(0.382)"/>
    <g id="组_19" data-name="组 19">
      <g id="组_16" data-name="组 16">
        <path id="bg" class="cls-2" d="M40,20A20,20,0,1,0,20,40,20.033,20.033,0,0,0,40,20Z"/>
        <path id="bg-2" data-name="bg" class="cls-3" d="M40.62,20.31A20.31,20.31,0,1,0,20.31,40.62,20.344,20.344,0,0,0,40.62,20.31Z"/>
      </g>
      <path id="circle" class="cls-4" d="M4-12A16,16,0,1,0,20,4,16,16,0,0,0,4-12Z" transform="translate(13 13)"/>
      <path id="circle-2" data-name="circle" class="cls-5" d="M36,20A16,16,0,1,0,52,36,16,16,0,0,0,36,20Z" transform="translate(-13 -13)"/>
    </g>
  </g>
  <path id="Vector" class="cls-2" d="M2.78,14.29a1.69,1.69,0,0,0,0,3.38,1.69,1.69,0,0,0,0-3.38Zm8.47,1.69a1.685,1.685,0,1,0,1.69-1.69A1.694,1.694,0,0,0,11.25,15.98Zm-6.39-2.2a8.976,8.976,0,0,0,2.98.51,9.082,9.082,0,0,0,3.05-.51,8.234,8.234,0,0,0,2.55-1.46,6.623,6.623,0,0,0,1.71-2.19,5.886,5.886,0,0,0,.6-2.59V5.29h1.13a1.125,1.125,0,0,0,0-2.25H15.75A2.253,2.253,0,0,0,13.5,5.29V7.54H0a5.886,5.886,0,0,0,.6,2.59,6.9,6.9,0,0,0,1.71,2.19A8.234,8.234,0,0,0,4.86,13.78ZM3.48.16A7.9,7.9,0,0,0,0,6.42H8.97L4.88.47A1.023,1.023,0,0,0,3.48.16Z" transform="translate(11.5 11.33)"/>
</svg>
